<?xml version="1.0" standalone="no"?>
<!DOCTYPE svg PUBLIC "-//W3C//DTD SVG 20010904//EN"
 "http://www.w3.org/TR/2001/REC-SVG-20010904/DTD/svg10.dtd">
<svg version="1.0" xmlns="http://www.w3.org/2000/svg"
 width="192.000000pt" height="192.000000pt" viewBox="0 0 192.000000 192.000000"
 preserveAspectRatio="xMidYMid meet">

<g transform="translate(0.000000,192.000000) scale(0.100000,-0.100000)"
fill="#000000" stroke="none">
<path d="M0 960 l0 -960 960 0 960 0 0 960 0 960 -960 0 -960 0 0 -960z m323
593 c3 -5 -5 -8 -18 -8 -13 0 -21 3 -18 8 2 4 10 7 18 7 8 0 16 -3 18 -7z
m152 -2 c3 -5 0 -13 -6 -16 -5 -4 -8 -14 -4 -22 4 -13 3 -14 -10 -3 -14 11
-13 14 2 26 17 12 17 13 -4 14 -15 0 -23 -7 -26 -22 -4 -20 -4 -19 -6 5 -1 22
3 27 23 27 14 0 27 -4 31 -9z m90 0 c3 -5 0 -13 -6 -17 -8 -4 -9 -3 -5 4 5 8
-1 12 -14 12 -13 0 -19 -4 -14 -12 4 -7 3 -8 -5 -4 -16 10 -4 26 19 26 10 0
21 -4 25 -9z m65 -8 c0 -12 -3 -14 -8 -7 -4 7 -16 14 -27 17 -15 4 -14 5 8 6
20 1 27 -4 27 -16z m80 7 c0 -5 -7 -7 -15 -4 -11 4 -15 0 -15 -16 0 -16 4 -20
16 -16 8 3 12 2 9 -4 -14 -22 -35 -10 -35 20 0 23 4 30 20 30 11 0 20 -4 20
-10z m48 3 c-10 -2 -18 -13 -18 -23 0 -10 8 -21 18 -23 13 -4 11 -5 -5 -6 -19
-1 -23 4 -23 29 0 25 4 30 23 29 16 -1 18 -2 5 -6z m170 -21 c4 -28 -24 -40
-45 -19 -14 13 -14 19 -3 32 18 22 44 15 48 -13z m125 21 c-28 -5 -28 -10 -5
-31 10 -10 12 -13 5 -9 -6 5 -17 6 -23 2 -6 -4 -10 4 -10 19 0 22 4 26 28 25
23 -2 24 -2 5 -6z m102 -23 c0 -18 -6 -26 -22 -28 -20 -3 -23 1 -23 28 0 27 3
31 23 28 16 -2 22 -10 22 -28z m45 22 c-22 -10 -24 -40 -3 -45 14 -4 13 -5 -4
-6 -19 -1 -23 4 -23 29 0 25 4 30 23 29 16 0 18 -2 7 -7z m46 -1 c-19 -7 -19
-8 3 -14 27 -7 23 -31 -5 -34 -16 -2 -16 -1 -1 3 23 7 22 20 -4 27 -24 6 -17
27 9 26 14 0 14 -2 -2 -8z m66 -18 c-5 -23 -7 -25 -10 -8 -2 11 -9 23 -16 27
-6 5 -3 8 10 8 18 0 20 -4 16 -27z m88 -7 c0 -4 -6 -3 -14 3 -12 10 -15 8 -19
-11 -3 -17 -5 -15 -6 10 -1 30 0 31 19 20 11 -7 20 -17 20 -22z m91 8 c5 -15
7 -29 4 -32 -3 -3 -5 0 -5 7 0 9 -9 12 -25 9 -16 -4 -25 -1 -25 7 0 8 8 11 20
8 11 -3 20 -1 20 5 0 6 -8 13 -17 15 -17 4 -17 5 0 6 10 1 22 -10 28 -25z m42
19 c-7 -2 -19 -2 -25 0 -7 3 -2 5 12 5 14 0 19 -2 13 -5z m95 -21 c4 -28 -24
-40 -45 -19 -14 13 -14 19 -3 32 18 22 44 15 48 -13z m75 5 c3 12 5 8 6 -10
l1 -29 -29 24 c-17 13 -30 27 -30 32 -1 5 10 -1 23 -13 23 -21 25 -22 29 -4z
m-283 -24 c-11 -17 -11 -17 -6 0 3 10 6 24 7 30 0 9 2 9 5 0 3 -7 0 -20 -6
-30z m137 5 c-3 -7 -5 -2 -5 12 0 14 2 19 5 13 2 -7 2 -19 0 -25z m-933 -7 c4
-5 -5 -4 -19 2 -14 7 -25 16 -25 20 0 9 36 -9 44 -22z m23 7 c-3 -8 -6 -5 -6
6 -1 11 2 17 5 13 3 -3 4 -12 1 -19z m203 7 c-7 -8 -17 -12 -23 -8 -6 4 -3 9
9 14 27 11 28 11 14 -6z m-535 -11 c9 3 13 2 10 -4 -10 -15 -31 -12 -46 8 -13
15 -12 16 3 3 10 -7 25 -11 33 -7z m78 -6 c-2 -5 -10 -8 -18 -8 -8 0 -16 3
-18 8 -3 4 5 7 18 7 13 0 21 -3 18 -7z m600 0 c-2 -5 -10 -8 -18 -8 -8 0 -16
3 -18 8 -3 4 5 7 18 7 13 0 21 -3 18 -7z m152 -67 c-25 -4 -39 -11 -37 -19 2
-10 -2 -10 -19 -1 -29 15 -124 5 -145 -15 -17 -18 -34 -21 -34 -7 0 5 8 12 18
14 16 4 16 5 -1 6 -10 0 -20 -6 -23 -14 -8 -19 -24 -20 -24 -1 0 27 77 43 210
43 61 0 81 -2 55 -6z m-107 -38 c-16 -2 -40 -2 -55 0 -16 2 -3 4 27 4 30 0 43
-2 28 -4z m-169 -32 c9 -16 6 -19 -21 -25 -17 -3 -145 -6 -284 -6 -140 0 -254
-3 -254 -7 0 -5 38 -68 83 -140 71 -114 82 -138 79 -168 -2 -19 -7 -35 -11
-35 -5 0 -239 367 -249 392 -2 4 143 8 322 8 308 0 326 -1 335 -19z m860 -63
c-29 -46 -86 -137 -128 -203 l-76 -119 -6 39 c-7 38 -2 48 77 173 46 73 84
135 84 137 0 3 -72 5 -160 5 -90 0 -160 4 -160 9 0 40 5 41 216 41 l204 0 -51
-82z m-444 37 c57 -9 166 -46 149 -52 -6 -2 -34 5 -62 16 -70 28 -176 38 -199
20 -9 -8 -14 -9 -10 -3 4 7 -14 10 -56 8 -267 -12 -291 -12 -268 -3 37 15 222
31 306 27 46 -2 75 1 75 7 0 6 4 5 8 -2 4 -6 30 -14 57 -18z m-140 -24 c3 -5
-6 -19 -21 -30 -26 -20 -50 -83 -39 -101 7 -11 164 -13 278 -4 l77 7 0 36 1
36 20 -38 c12 -22 17 -46 14 -58 -4 -11 0 -30 9 -43 8 -13 18 -52 21 -87 3
-35 8 -75 11 -87 3 -15 1 -21 -6 -17 -5 3 -10 21 -10 39 0 19 -8 44 -19 57
-17 21 -21 22 -36 9 -23 -19 -38 -58 -36 -92 1 -16 -4 -28 -10 -28 -6 0 -9 9
-6 20 5 20 2 20 -54 14 l-59 -7 -2 39 -1 39 -4 -37 -4 -38 -77 -2 -77 -2 75
-6 75 -6 -67 -2 c-38 -1 -68 -6 -68 -12 0 -5 -4 -10 -10 -10 -5 0 -10 22 -10
50 0 27 -5 61 -12 75 -12 26 -48 42 -68 30 -19 -12 -50 -87 -50 -122 l0 -31
-114 1 c-63 1 -118 6 -123 11 -4 5 3 6 18 3 20 -5 32 0 59 28 19 20 51 40 72
46 21 5 42 19 48 29 13 25 2 26 -16 3 -13 -17 -14 -17 -7 1 6 17 2 18 -43 12
-65 -9 -85 -16 -79 -25 2 -5 -4 -16 -15 -26 -13 -12 -42 -18 -97 -22 -97 -6
-147 5 -151 35 -2 11 -12 24 -23 27 -10 4 -19 13 -19 21 0 18 27 84 35 84 9 0
-7 -54 -19 -62 -7 -5 -4 -8 7 -8 9 0 17 7 17 15 0 13 21 15 133 15 72 0 139 5
147 10 10 7 -30 10 -132 8 -95 -2 -144 0 -141 7 15 26 41 48 73 61 19 8 46 25
60 37 l25 22 -20 -23 -19 -23 184 7 c205 7 201 6 256 85 27 40 38 46 49 30z
m-72 -42 c-26 -45 -55 -61 -105 -57 l-43 3 39 43 c34 37 43 42 83 42 l44 0
-18 -31z m131 -45 c23 -9 20 -23 -4 -17 -11 3 -20 0 -20 -6 0 -6 10 -11 22
-11 12 0 19 -3 15 -6 -11 -11 -77 6 -77 21 0 21 34 31 64 19z m-168 -240 c-4
-14 -11 -22 -17 -18 -8 4 -7 10 0 17 6 6 12 22 12 37 1 18 3 20 6 7 3 -10 2
-30 -1 -43z m54 -22 c0 -24 -5 -52 -10 -63 -11 -20 -40 -27 -40 -9 0 6 5 10
11 10 6 0 9 8 7 18 -3 10 1 23 9 30 17 17 17 32 -2 32 -11 0 -12 5 -5 24 5 13
8 26 7 28 -1 2 4 -3 11 -11 6 -8 12 -35 12 -59z m-227 41 c-7 -2 -19 -2 -25 0
-7 3 -2 5 12 5 14 0 19 -2 13 -5z m623 -88 c-4 -14 -14 -25 -22 -25 -14 0 -14
3 -4 15 7 9 10 19 6 22 -4 4 -11 1 -16 -7 -8 -13 -10 -12 -10 3 0 10 8 17 20
17 11 0 20 7 20 15 0 8 -4 15 -9 15 -5 0 -6 10 -3 23 5 19 7 17 15 -16 5 -20
6 -49 3 -62z m-968 41 c15 -25 17 -36 9 -40 -7 -2 6 -5 27 -5 22 -1 37 -4 33
-7 -12 -12 -117 7 -117 21 0 7 6 16 13 19 9 5 9 7 -1 12 -10 5 -10 9 -1 20 15
18 14 19 37 -20z m932 20 c0 -3 -4 -8 -10 -11 -5 -3 -10 -1 -10 4 0 6 5 11 10
11 6 0 10 -2 10 -4z m-410 -51 c0 -8 -4 -15 -10 -15 -5 0 -7 7 -4 15 4 8 8 15
10 15 2 0 4 -7 4 -15z m253 -22 c-18 -2 -48 -2 -65 0 -18 2 -4 4 32 4 36 0 50
-2 33 -4z m-477 -270 c-4 -5 -76 34 -76 41 0 5 49 -2 59 -9 6 -3 12 2 12 12 1
10 4 5 6 -10 3 -16 2 -31 -1 -34z m404 23 c-10 -17 -27 -33 -36 -35 -17 -3
-17 -2 -2 20 9 13 22 23 28 21 7 -2 10 3 7 11 -3 8 1 14 9 14 11 0 9 -7 -6
-31z m-670 -6 c0 -16 -4 -30 -10 -30 -11 0 -14 43 -3 53 11 12 13 8 13 -23z
m587 -3 c-13 -20 -24 -22 -147 -25 -118 -2 -132 -1 -120 13 10 12 36 15 125
15 118 0 149 5 138 23 -4 6 -1 7 6 3 9 -6 9 -13 -2 -29z m301 -26 c-15 -5 -50
38 -41 52 4 6 16 -1 30 -19 14 -19 19 -30 11 -33z m-688 -96 c-13 -16 -86 -21
-108 -6 -7 4 11 6 41 3 34 -3 57 0 61 7 4 6 10 11 13 11 3 0 0 -7 -7 -15z
m340 0 c-13 -16 -130 -22 -130 -7 0 4 25 5 56 4 32 -2 61 1 67 7 16 16 21 13
7 -4z m60 11 c0 -2 -8 -10 -17 -17 -16 -13 -17 -12 -4 4 13 16 21 21 21 13z
m91 -13 c13 -16 12 -17 -3 -4 -10 7 -18 15 -18 17 0 8 8 3 21 -13z m272 -4
c-5 -5 -36 -8 -69 -6 l-59 3 63 2 c39 1 62 6 62 14 0 6 3 8 7 5 4 -4 2 -12 -4
-18z m-623 -3 c8 -2 -11 -4 -42 -5 -32 0 -58 2 -58 7 0 7 64 6 100 -2z m24
-162 c43 -69 79 -124 81 -122 1 2 37 58 79 126 l77 122 130 0 c71 0 129 -2
129 -4 0 -2 -44 -11 -97 -21 -54 -9 -105 -19 -114 -21 -9 -2 -58 -72 -110
-154 -84 -134 -95 -148 -107 -133 -7 10 -50 76 -94 148 -45 72 -82 131 -84
133 -1 2 -50 12 -110 23 -59 10 -110 21 -112 24 -3 3 53 5 124 5 l129 0 79
-126z"/>
<path d="M885 1540 c-8 -14 3 -30 21 -30 8 0 14 9 14 20 0 21 -24 28 -35 10z"/>
<path d="M1120 1530 c0 -11 7 -20 15 -20 8 0 15 9 15 20 0 11 -7 20 -15 20 -8
0 -15 -9 -15 -20z"/>
<path d="M1585 1540 c-8 -14 3 -30 21 -30 8 0 14 9 14 20 0 21 -24 28 -35 10z"/>
<path d="M984 1164 l29 -16 -25 -25 c-17 -17 -43 -28 -79 -33 l-54 -9 61 3
c50 3 66 9 88 31 l27 27 -20 19 c-11 11 -28 19 -38 19 -13 -1 -10 -5 11 -16z"/>
<path d="M892 1155 c-37 -16 -84 -63 -76 -76 3 -5 13 -9 22 -9 14 0 15 2 2 10
-12 7 -11 13 9 34 13 14 42 32 65 40 23 8 34 15 26 15 -8 0 -30 -6 -48 -14z"/>
<path d="M1431 1144 c0 -11 3 -14 6 -6 3 7 2 16 -1 19 -3 4 -6 -2 -5 -13z"/>
<path d="M542 1043 l3 -38 100 -3 c92 -3 101 -1 118 19 9 12 17 30 17 40 0 18
-9 19 -121 19 l-120 0 3 -37z"/>
<path d="M900 960 c0 -13 5 -20 13 -17 6 2 12 10 12 17 0 7 -6 15 -12 18 -8 2
-13 -5 -13 -18z"/>
<path d="M500 951 c0 -5 5 -13 10 -16 6 -3 10 -2 10 4 0 5 -4 13 -10 16 -5 3
-10 2 -10 -4z"/>
</g>
</svg>
